<?xml version="1.0" encoding="UTF-8"?>
<svg version="1.1" xmlns="http://www.w3.org/2000/svg" width="512" height="512">
<path d="M0 0 C20.19794662 16.85543349 35.52614612 40.80625651 38.59423828 67.38256836 C38.67673828 68.57881836 38.75923828 69.77506836 38.84423828 71.00756836 C39.89740234 71.10553711 40.95056641 71.20350586 42.03564453 71.30444336 C73.75654581 74.4872788 100.44706043 88.18613091 121.20507812 112.60864258 C135.10248356 129.7662537 145.15730449 153.14467615 144.90673828 175.44506836 C144.89771484 176.4956543 144.88869141 177.54624023 144.87939453 178.62866211 C144.86199219 179.8062207 144.86199219 179.8062207 144.84423828 181.00756836 C145.79041016 181.08233398 146.73658203 181.15709961 147.71142578 181.23413086 C169.15551071 183.236531 189.70706061 191.60436819 205.84423828 206.00756836 C206.66021484 206.68174805 207.47619141 207.35592773 208.31689453 208.05053711 C226.77333503 223.71141166 240.75769954 248.69773606 242.84423828 273.00756836 C243.74831252 289.0456984 243.67289454 304.6003428 238.84423828 320.00756836 C238.49361328 321.13420898 238.14298828 322.26084961 237.78173828 323.42163086 C232.61688809 338.16297412 224.36079939 350.6025113 213.84423828 362.00756836 C213.26287109 362.67014648 212.68150391 363.33272461 212.08251953 364.01538086 C196.22684069 381.18903804 170.78328057 392.86340706 147.574844 394.19517589 C143.86715511 394.26985285 140.16408011 394.28378043 136.4556427 394.2749939 C135.02624402 394.27873745 133.59684739 394.28334176 132.16745394 394.28872454 C128.26682667 394.30088287 124.36628563 394.3007026 120.46564376 394.29833579 C116.24802783 394.2979258 112.03043888 394.30898408 107.81283569 394.31845093 C99.55987938 394.33502245 91.30695165 394.34055873 83.05398009 394.34167568 C76.34146547 394.34262798 69.62896024 394.34674731 62.91644859 394.35307693 C43.86036171 394.37067877 24.80429731 394.37991745 5.74820224 394.37841599 C4.20910556 394.37829612 4.20910556 394.37829612 2.63891602 394.37817383 C1.61159017 394.37809207 0.58426433 394.37801031 -0.4741926 394.37792607 C-17.11726203 394.37711345 -33.76024091 394.39624789 -50.40328415 394.42445056 C-67.51662389 394.45321999 -84.62991952 394.46698863 -101.74328405 394.46526301 C-111.34133279 394.46460052 -120.93928658 394.47003105 -130.53731346 394.49161911 C-138.71001856 394.50988439 -146.88258567 394.5141345 -155.0553024 394.50060026 C-159.21938056 394.49409752 -163.38319439 394.49385507 -167.54724693 394.51130676 C-171.37016283 394.52716295 -175.19260758 394.52404797 -179.01551286 394.5067385 C-181.03024729 394.50227086 -183.04499709 394.51722672 -185.05967301 394.53321779 C-207.06746206 394.36915814 -225.86229957 385.64456324 -241.68701172 370.60131836 C-258.70561988 352.65018372 -263.85086833 332.35391423 -263.46044922 308.41381836 C-262.86553917 291.50067315 -255.58176888 274.54542301 -244.15576172 262.00756836 C-243.44033203 261.20061523 -242.72490234 260.39366211 -241.98779297 259.56225586 C-230.15263283 246.93551078 -213.41494376 236.88548853 -195.78076172 236.01538086 C-195.24451172 236.01280273 -194.70826172 236.01022461 -194.15576172 236.00756836 C-194.48576172 235.34756836 -194.81576172 234.68756836 -195.15576172 234.00756836 C-196.77551964 212.51462674 -190.29966523 191.67295637 -176.68701172 174.98022461 C-168.87942035 165.92296212 -159.78870954 158.56570018 -149.15576172 153.00756836 C-149.61724609 152.50612305 -150.07873047 152.00467773 -150.55419922 151.48803711 C-161.28455966 139.03997075 -168.21181997 123.86944763 -172.15576172 108.00756836 C-172.39939453 107.0781543 -172.64302734 106.14874023 -172.89404297 105.19116211 C-178.62039749 78.42921955 -172.55732889 49.00960304 -158.15576172 26.00756836 C-140.95543619 0.01121715 -116.38307309 -15.61154556 -86.15576172 -21.99243164 C-55.80313332 -27.58836546 -23.92363033 -19.23631205 0 0 Z " fill="#4EB0FC" transform="translate(266.15576171875,114.992431640625)"/>
<path d="M0 0 C20.19794662 16.85543349 35.52614612 40.80625651 38.59423828 67.38256836 C38.67673828 68.57881836 38.75923828 69.77506836 38.84423828 71.00756836 C39.89740234 71.10553711 40.95056641 71.20350586 42.03564453 71.30444336 C73.75654581 74.4872788 100.44706043 88.18613091 121.20507812 112.60864258 C135.10248356 129.7662537 145.15730449 153.14467615 144.90673828 175.44506836 C144.89771484 176.4956543 144.88869141 177.54624023 144.87939453 178.62866211 C144.86199219 179.8062207 144.86199219 179.8062207 144.84423828 181.00756836 C145.79041016 181.08233398 146.73658203 181.15709961 147.71142578 181.23413086 C169.15551071 183.236531 189.70706061 191.60436819 205.84423828 206.00756836 C206.66021484 206.68174805 207.47619141 207.35592773 208.31689453 208.05053711 C226.77333503 223.71141166 240.75769954 248.69773606 242.84423828 273.00756836 C243.74831252 289.0456984 243.67289454 304.6003428 238.84423828 320.00756836 C238.49361328 321.13420898 238.14298828 322.26084961 237.78173828 323.42163086 C232.61688809 338.16297412 224.36079939 350.6025113 213.84423828 362.00756836 C213.26287109 362.67014648 212.68150391 363.33272461 212.08251953 364.01538086 C196.22684069 381.18903804 170.78328057 392.86340706 147.574844 394.19517589 C143.86715511 394.26985285 140.16408011 394.28378043 136.4556427 394.2749939 C135.02624402 394.27873745 133.59684739 394.28334176 132.16745394 394.28872454 C128.26682667 394.30088287 124.36628563 394.3007026 120.46564376 394.29833579 C116.24802783 394.2979258 112.03043888 394.30898408 107.81283569 394.31845093 C99.55987938 394.33502245 91.30695165 394.34055873 83.05398009 394.34167568 C76.34146547 394.34262798 69.62896024 394.34674731 62.91644859 394.35307693 C43.86036171 394.37067877 24.80429731 394.37991745 5.74820224 394.37841599 C4.20910556 394.37829612 4.20910556 394.37829612 2.63891602 394.37817383 C1.61159017 394.37809207 0.58426433 394.37801031 -0.4741926 394.37792607 C-17.11726203 394.37711345 -33.76024091 394.39624789 -50.40328415 394.42445056 C-67.51662389 394.45321999 -84.62991952 394.46698863 -101.74328405 394.46526301 C-111.34133279 394.46460052 -120.93928658 394.47003105 -130.53731346 394.49161911 C-138.71001856 394.50988439 -146.88258567 394.5141345 -155.0553024 394.50060026 C-159.21938056 394.49409752 -163.38319439 394.49385507 -167.54724693 394.51130676 C-171.37016283 394.52716295 -175.19260758 394.52404797 -179.01551286 394.5067385 C-181.03024729 394.50227086 -183.04499709 394.51722672 -185.05967301 394.53321779 C-207.06746206 394.36915814 -225.86229957 385.64456324 -241.68701172 370.60131836 C-258.70561988 352.65018372 -263.85086833 332.35391423 -263.46044922 308.41381836 C-262.86553917 291.50067315 -255.58176888 274.54542301 -244.15576172 262.00756836 C-243.44033203 261.20061523 -242.72490234 260.39366211 -241.98779297 259.56225586 C-230.15263283 246.93551078 -213.41494376 236.88548853 -195.78076172 236.01538086 C-195.24451172 236.01280273 -194.70826172 236.01022461 -194.15576172 236.00756836 C-194.48576172 235.34756836 -194.81576172 234.68756836 -195.15576172 234.00756836 C-196.77551964 212.51462674 -190.29966523 191.67295637 -176.68701172 174.98022461 C-168.87942035 165.92296212 -159.78870954 158.56570018 -149.15576172 153.00756836 C-149.61724609 152.50612305 -150.07873047 152.00467773 -150.55419922 151.48803711 C-161.28455966 139.03997075 -168.21181997 123.86944763 -172.15576172 108.00756836 C-172.39939453 107.0781543 -172.64302734 106.14874023 -172.89404297 105.19116211 C-178.62039749 78.42921955 -172.55732889 49.00960304 -158.15576172 26.00756836 C-140.95543619 0.01121715 -116.38307309 -15.61154556 -86.15576172 -21.99243164 C-55.80313332 -27.58836546 -23.92363033 -19.23631205 0 0 Z M3.84423828 92.00756836 C2.72017578 92.36979492 1.59611328 92.73202148 0.43798828 93.10522461 C-21.29032233 100.73600036 -39.87072636 117.05087424 -51.15576172 137.00756836 C-51.60435547 137.77069336 -52.05294922 138.53381836 -52.51513672 139.32006836 C-59.37309368 151.8506564 -61.88745579 165.94262347 -63.15576172 180.00756836 C-67.23620586 182.04779043 -69.76180985 182.25973081 -74.15576172 181.00756836 C-76.79638672 179.33569336 -76.79638672 179.33569336 -79.40576172 177.25756836 C-94.08177142 166.1712313 -111.13528912 162.19568988 -129.39404297 164.39819336 C-145.7553704 167.51463668 -158.27355228 177.5917916 -168.12451172 190.60913086 C-175.32790122 201.89199095 -178.33996296 213.6083248 -178.28076172 226.82006836 C-178.28462891 227.67149414 -178.28849609 228.52291992 -178.29248047 229.40014648 C-178.28488811 234.38453017 -177.98129046 239.1756991 -177.2175293 244.10400391 C-177.15576172 246.00756836 -177.15576172 246.00756836 -178.71826172 249.00756836 C-183.30333779 251.67524898 -187.16455237 251.50936151 -192.39794922 251.72241211 C-208.18555341 252.92043197 -221.48904996 261.80076993 -232.15576172 273.00756836 C-244.46749707 287.59223947 -248.19570692 303.43711835 -247.15576172 322.00756836 C-245.37427962 338.93164831 -235.99640022 354.19352481 -223.15576172 365.00756836 C-212.08076127 373.11288849 -200.05349203 378.12189528 -186.22311115 378.13899612 C-185.05246123 378.14283727 -183.8818113 378.14667841 -182.67568713 378.15063596 C-181.39876583 378.14976948 -180.12184453 378.14890299 -178.80622864 378.14801025 C-177.4286577 378.15059578 -176.05108752 378.15360946 -174.67351836 378.15701365 C-170.89282354 378.16506566 -167.11214772 378.16687223 -163.33144534 378.16761112 C-159.25138951 378.16946495 -155.17134348 378.17701421 -151.09129333 378.18374634 C-142.16917119 378.19732001 -133.24705355 378.20335361 -124.3249228 378.207757 C-118.74767287 378.21052251 -113.17042466 378.21476056 -107.59317589 378.21926117 C-92.13562663 378.23145533 -76.67807875 378.24175256 -61.22052479 378.24513626 C-60.23139781 378.24535583 -59.24227084 378.24557539 -58.22317032 378.24580161 C-57.23173012 378.24601989 -56.24028993 378.24623817 -55.21880609 378.24646306 C-53.20991695 378.24690652 -51.20102781 378.24735308 -49.19213867 378.24780273 C-47.69743419 378.24813488 -47.69743419 378.24813488 -46.17253365 378.24847373 C-30.05174638 378.25241574 -13.93100448 378.26985082 2.1897653 378.29316226 C18.76168065 378.31693138 35.3335733 378.32934073 51.90550596 378.33050418 C61.20133866 378.33141811 70.49711234 378.33709863 79.7929287 378.35532379 C87.71458784 378.37080038 95.63616973 378.37580121 103.55784114 378.36758569 C107.5926008 378.363705 111.62720525 378.36448059 115.66194534 378.37864304 C144.68197119 379.17745207 144.68197119 379.17745207 172.21923828 371.38256836 C173.32380371 370.85880615 173.32380371 370.85880615 174.45068359 370.32446289 C196.49204397 359.54346692 213.22039869 341.68001066 221.62939453 318.62084961 C228.95420097 296.83484976 229.47526508 273.3741742 220.03173828 252.13256836 C218.99420645 250.07810086 217.93212081 248.03582392 216.84423828 246.00756836 C216.34279297 245.01499023 215.84134766 244.02241211 215.32470703 242.99975586 C204.53700053 222.89420067 184.99635769 208.19674661 163.55908203 201.03491211 C154.17926765 198.44091507 144.45465878 196.82054761 134.72705078 196.41381836 C132.24537705 195.87835349 131.4358465 194.96300434 129.84423828 193.00756836 C129.4753418 191.11669922 129.4753418 191.11669922 129.47314453 188.97241211 C129.45872314 188.172146 129.44430176 187.37187988 129.42944336 186.54736328 C129.41820435 185.25922729 129.41820435 185.25922729 129.40673828 183.94506836 C128.61611856 158.32296126 119.39000877 133.51857883 100.98486328 115.15209961 C98.99435982 113.35488884 96.94336483 111.67657616 94.84423828 110.00756836 C93.99474609 109.29858398 93.14525391 108.58959961 92.27001953 107.85913086 C67.87563502 88.35693533 33.51466356 81.99708195 3.84423828 92.00756836 Z " fill="#010102" transform="translate(266.15576171875,114.992431640625)"/>
<path d="M0 0 C1.27214355 0.00684814 2.54428711 0.01369629 3.85498047 0.02075195 C17.95779695 0.26037598 30.29156292 2.70843351 42.8125 9.4375 C43.79734375 9.95183594 44.7821875 10.46617188 45.796875 10.99609375 C53.04416132 14.9784224 58.89651536 19.69226534 64.8125 25.4375 C65.84310547 26.35789063 65.84310547 26.35789063 66.89453125 27.296875 C79.5381963 38.96795043 87.95797804 56.63588387 90.8125 73.4375 C90.82991267 75.1040757 90.83235438 76.7709516 90.8125 78.4375 C90.23508057 78.55230713 89.65766113 78.66711426 89.06274414 78.78540039 C66.65083843 83.32904415 47.41249165 90.35583513 29.8125 105.4375 C28.57886719 106.45263672 28.57886719 106.45263672 27.3203125 107.48828125 C11.89851321 120.62803859 1.86023044 138.2982119 -4.1875 157.4375 C-4.78980779 159.22979242 -5.39370426 161.02155269 -6 162.8125 C-6.391875 164.00875 -6.78375 165.205 -7.1875 166.4375 C-8.2290625 165.97859375 -9.270625 165.5196875 -10.34375 165.046875 C-24.95193232 158.73191536 -37.84430758 154.5054064 -53.91894531 155.84790039 C-57.60452891 156.03922658 -60.13416953 156.163378 -63.24194336 154.02172852 C-65.04719308 152.24884715 -66.63215339 150.43136313 -68.1875 148.4375 C-68.82558594 147.67566406 -69.46367188 146.91382813 -70.12109375 146.12890625 C-78.02451404 134.94094766 -83.81842352 122.71875411 -87.1875 109.4375 C-87.52394531 108.25220703 -87.52394531 108.25220703 -87.8671875 107.04296875 C-93.11267832 85.95322142 -87.22923431 62.71937902 -76.875 44.125 C-63.35466989 22.24341311 -42.48419535 7.06048904 -17.50195312 1.04394531 C-11.67667917 -0.02190475 -5.90739502 -0.04894766 0 0 Z " fill="#FAD733" transform="translate(197.1875,108.5625)"/>
<path d="M0 0 C2.45152051 1.94341414 4.83556786 3.94449676 7.20703125 5.984375 C7.84253906 6.48710937 8.47804688 6.98984375 9.1328125 7.5078125 C13.96602121 11.38723944 17.56027342 15.99640836 21.20703125 20.984375 C20.21703125 20.984375 19.22703125 20.984375 18.20703125 20.984375 C18.20703125 20.324375 18.20703125 19.664375 18.20703125 18.984375 C17.58828125 18.901875 16.96953125 18.819375 16.33203125 18.734375 C14.20703125 17.984375 14.20703125 17.984375 12.95703125 15.921875 C12.58578125 14.9628125 12.58578125 14.9628125 12.20703125 13.984375 C11.21703125 13.984375 10.22703125 13.984375 9.20703125 13.984375 C9.20703125 13.324375 9.20703125 12.664375 9.20703125 11.984375 C7.22703125 11.654375 5.24703125 11.324375 3.20703125 10.984375 C3.20703125 10.324375 3.20703125 9.664375 3.20703125 8.984375 C2.55476562 8.80261719 1.9025 8.62085938 1.23046875 8.43359375 C-3.75034025 7.00106019 -8.1686142 5.34574753 -12.79296875 2.984375 C-22.85372897 -0.9422518 -32.65674581 -2.35080618 -43.41796875 -2.265625 C-44.4028125 -2.27335938 -45.38765625 -2.28109375 -46.40234375 -2.2890625 C-52.24971707 -2.2734695 -57.17209789 -1.58563371 -62.79296875 -0.015625 C-64.78703609 0.24340826 -66.78777902 0.45898577 -68.79296875 0.609375 C-69.74171875 0.68414062 -70.69046875 0.75890625 -71.66796875 0.8359375 C-72.71984375 0.90941406 -72.71984375 0.90941406 -73.79296875 0.984375 C-73.79296875 1.644375 -73.79296875 2.304375 -73.79296875 2.984375 C-77.42296875 3.644375 -81.05296875 4.304375 -84.79296875 4.984375 C-84.79296875 5.644375 -84.79296875 6.304375 -84.79296875 6.984375 C-87.8810657 8.74900183 -89.02609011 8.984375 -92.79296875 8.984375 C-92.79296875 9.644375 -92.79296875 10.304375 -92.79296875 10.984375 C-95.69845757 13.02606985 -97.19438921 13.984375 -100.79296875 13.984375 C-100.79296875 14.644375 -100.79296875 15.304375 -100.79296875 15.984375 C-102.77296875 16.479375 -102.77296875 16.479375 -104.79296875 16.984375 C-104.79296875 17.644375 -104.79296875 18.304375 -104.79296875 18.984375 C-106.4375 20.5703125 -106.4375 20.5703125 -108.60546875 22.359375 C-110.85547732 24.22003782 -112.6964716 25.85310203 -114.4296875 28.2109375 C-115.10451172 29.08878906 -115.10451172 29.08878906 -115.79296875 29.984375 C-116.45296875 29.984375 -117.11296875 29.984375 -117.79296875 29.984375 C-118.45296875 31.964375 -119.11296875 33.944375 -119.79296875 35.984375 C-120.78296875 35.984375 -121.77296875 35.984375 -122.79296875 35.984375 C-124.58675675 39.29598362 -125.79849684 42.72339479 -127.01171875 46.27734375 C-127.79296875 47.984375 -127.79296875 47.984375 -129.79296875 48.984375 C-130.6318509 50.92876391 -130.6318509 50.92876391 -131.29296875 53.234375 C-131.54949219 54.04390625 -131.80601562 54.8534375 -132.0703125 55.6875 C-132.30878906 56.44546875 -132.54726562 57.2034375 -132.79296875 57.984375 C-134.51448774 62.84513449 -134.51448774 62.84513449 -136.79296875 63.984375 C-137.39557462 66.43396784 -137.87743818 68.8144405 -138.29296875 71.296875 C-138.48306519 72.37098633 -138.48306519 72.37098633 -138.67700195 73.46679688 C-139.0585705 75.63779864 -139.4274264 77.81062316 -139.79296875 79.984375 C-140.00308594 81.21542969 -140.21320313 82.44648438 -140.4296875 83.71484375 C-140.89380093 86.46990007 -141.34891623 89.22602524 -141.79296875 91.984375 C-142.78296875 91.654375 -143.77296875 91.324375 -144.79296875 90.984375 C-144.79296875 89.994375 -144.79296875 89.004375 -144.79296875 87.984375 C-145.72109375 87.613125 -145.72109375 87.613125 -146.66796875 87.234375 C-148.79296875 85.984375 -148.79296875 85.984375 -149.73046875 83.984375 C-151.19658207 81.22463227 -152.91624595 80.99122798 -155.79296875 79.984375 C-156.45296875 79.324375 -157.11296875 78.664375 -157.79296875 77.984375 C-154.04296875 74.984375 -154.04296875 74.984375 -151.79296875 74.984375 C-151.66341797 73.54771484 -151.66341797 73.54771484 -151.53125 72.08203125 C-149.48919959 51.83384123 -143.30487563 33.55496297 -129.79296875 17.984375 C-129.15101563 17.19933594 -128.5090625 16.41429687 -127.84765625 15.60546875 C-96.51267608 -21.33743222 -39.52578836 -28.5249046 0 0 Z " fill="#2C92F6" transform="translate(354.79296875,220.015625)"/>
<path d="M0 0 C0.97582031 0.00902344 1.95164063 0.01804687 2.95703125 0.02734375 C4.06111328 0.04474609 4.06111328 0.04474609 5.1875 0.0625 C4.8575 0.7225 4.5275 1.3825 4.1875 2.0625 C3.5275 2.0625 2.8675 2.0625 2.1875 2.0625 C2.1875 2.7225 2.1875 3.3825 2.1875 4.0625 C1.135625 4.619375 0.08375 5.17625 -1 5.75 C-4.49936633 7.73250391 -7.00428026 10.17838242 -9.8125 13.0625 C-10.534375 13.3925 -11.25625 13.7225 -12 14.0625 C-14.59083542 15.49192644 -14.81857523 17.3457723 -15.8125 20.0625 C-16.286875 20.51625 -16.76125 20.97 -17.25 21.4375 C-19.65259644 23.93620029 -20.54081951 26.85302066 -21.8125 30.0625 C-22.4725 30.0625 -23.1325 30.0625 -23.8125 30.0625 C-23.998125 31.2071875 -23.998125 31.2071875 -24.1875 32.375 C-24.8125 35.0625 -24.8125 35.0625 -26.8125 38.0625 C-32.58446516 57.52302473 -30.71954368 76.59138986 -22.8125 95.0625 C-22.49410156 95.94035156 -22.17570312 96.81820312 -21.84765625 97.72265625 C-20.9296069 100.28408244 -20.9296069 100.28408244 -18.3125 102.0625 C-15.51305573 104.30205542 -14.90103187 105.71317118 -13.8125 109.0625 C-13.02940533 111.29720405 -13.02940533 111.29720405 -11.8125 113.0625 C-11.235 113.206875 -10.6575 113.35125 -10.0625 113.5 C-6.4870474 114.39386315 -4.49384444 116.5639745 -1.8125 119.0625 C-1.8125 119.7225 -1.8125 120.3825 -1.8125 121.0625 C-0.4925 121.3925 0.8275 121.7225 2.1875 122.0625 C2.1875 122.7225 2.1875 123.3825 2.1875 124.0625 C3.5075 124.7225 4.8275 125.3825 6.1875 126.0625 C-9.54356021 126.97006117 -24.60995546 119.79481553 -36.453125 109.84375 C-48.98781274 98.00116158 -56.13701241 83.29945878 -57.015625 66.08203125 C-57.36998913 47.19152561 -51.77657011 32.1711905 -38.8125 18.0625 C-28.51661228 7.80675219 -14.83523038 -0.17873772 0 0 Z " fill="#2C91F7" transform="translate(75.8125,366.9375)"/>
<path d="M0 0 C-3.2055837 1.0685279 -5.02872939 0.72558623 -8.296875 0.265625 C-18.93436497 -0.77967748 -29.78567464 -0.80973457 -39.6875 3.5625 C-43 5 -43 5 -46.3125 5.4375 C-49.1505304 5.70387138 -49.1505304 5.70387138 -50.375 8.0625 C-50.58125 8.701875 -50.7875 9.34125 -51 10 C-52.32 10 -53.64 10 -55 10 C-55.433125 10.8971875 -55.433125 10.8971875 -55.875 11.8125 C-57 14 -57 14 -59 17 C-59.66 17 -60.32 17 -61 17 C-61 17.99 -61 18.98 -61 20 C-61.66 20 -62.32 20 -63 20 C-63.268125 20.721875 -63.53625 21.44375 -63.8125 22.1875 C-65 25 -65 25 -66.5 27.4375 C-71.62556657 36.19367622 -71.14236436 46.18282704 -71.0625 56 C-71.05798828 57.06089844 -71.05347656 58.12179687 -71.04882812 59.21484375 C-71.03713843 61.80995598 -71.02075276 64.40494709 -71 67 C-72.07378906 67.13277344 -73.14757812 67.26554687 -74.25390625 67.40234375 C-75.69010833 67.58069564 -77.12630601 67.75908295 -78.5625 67.9375 C-79.26697266 68.02451172 -79.97144531 68.11152344 -80.69726562 68.20117188 C-90.07757373 69.16831631 -90.07757373 69.16831631 -99 72 C-98.70703125 70.046875 -98.4140625 68.09375 -98.12109375 66.140625 C-97.89275533 64.02603839 -97.89275533 64.02603839 -98.47973633 62.13769531 C-102.48523399 45.67962982 -97.51928867 28.06673245 -89 14 C-86.25311651 10.37090576 -83.26490787 7.16563702 -80 4 C-79.278125 3.28070313 -78.55625 2.56140625 -77.8125 1.8203125 C-55.26568878 -19.51863384 -24.53262869 -15.65912469 0 0 Z " fill="#2C91F6" transform="translate(187,292)"/>
<path d="M0 0 C1.07515869 0.01514648 2.15031738 0.03029297 3.25805664 0.04589844 C11.60333414 0.27968436 18.76790373 1.4511211 26.5625 4.5625 C27.37203125 4.86285156 28.1815625 5.16320312 29.015625 5.47265625 C49.6264392 13.79625429 62.77575777 29.73542103 71.5625 49.5625 C76.22587527 62.07191907 78.66589589 80.7379041 73.5625 93.5625 C70.95324574 96.60662997 69.45607208 97.37633915 65.5625 98.1875 C62.15857164 97.47834826 60.46551046 96.33316394 58.3984375 93.515625 C57.04473401 90.35276637 57.63678307 87.66361241 58.15625 84.33203125 C60.35225725 69.36117412 56.99892182 54.38651225 48.70703125 41.73046875 C39.11527876 29.26693408 27.05293583 20.91434415 11.5625 17.5625 C6.60995474 17.13175253 1.657417 17.17289311 -3.31054688 17.2109375 C-10.72391633 17.09349798 -10.72391633 17.09349798 -14.59765625 14.2109375 C-16.4375 11.5625 -16.4375 11.5625 -17.0625 8.5625 C-15.15166289 -0.60951811 -7.72035387 -0.19715079 0 0 Z " fill="#020408" transform="translate(401.4375,328.4375)"/>
<path d="M0 0 C3.78869245 1.82705759 7.34803175 3.99946142 10.9375 6.1875 C13.06471376 7.46028814 15.1923305 8.73240297 17.3203125 10.00390625 C18.41375977 10.66148926 19.50720703 11.31907227 20.63378906 11.99658203 C24.00396138 14.00235764 27.39785457 15.95957594 30.8046875 17.90234375 C31.89531494 18.52665283 32.98594238 19.15096191 34.10961914 19.79418945 C36.20989603 20.99473648 38.31315931 22.19007728 40.41967773 23.37963867 C41.84582397 24.20105347 41.84582397 24.20105347 43.30078125 25.0390625 C44.13778564 25.51553223 44.97479004 25.99200195 45.8371582 26.48291016 C48.16037276 28.11249084 49.51336618 29.59161202 51 32 C51.56262515 35.77762603 51.29466967 37.48999479 49.375 40.8125 C46.43862105 43.51705956 44.9559369 43.77149823 41 44 C37.94921875 42.91796875 37.94921875 42.91796875 34.6875 41.1875 C34.08631348 40.87127686 33.48512695 40.55505371 32.86572266 40.22924805 C25.90981557 36.51818531 19.13270744 32.48437337 12.37695312 28.42382812 C9.78377161 26.87047618 7.18147137 25.33312533 4.578125 23.796875 C2.76022167 22.71907883 0.94251001 21.6409593 -0.875 20.5625 C-1.73754395 20.05436768 -2.60008789 19.54623535 -3.48876953 19.02270508 C-4.69702393 18.30183716 -4.69702393 18.30183716 -5.9296875 17.56640625 C-6.64366699 17.14302979 -7.35764648 16.71965332 -8.09326172 16.28344727 C-10.032556 14.97808619 -11.53504238 13.82487528 -13 12 C-13.77669903 5.00970874 -13.77669903 5.00970874 -11.125 1.5625 C-7.23617252 -1.29693197 -4.56014388 -1.34509322 0 0 Z " fill="#000000" transform="translate(41,97)"/>
<path d="M0 0 C6.94032202 2.40391042 10.88163868 13.00125627 14.22265625 18.9140625 C15.21616743 20.66115089 16.2112088 22.40736183 17.20632935 24.15353394 C17.87298999 25.32378349 18.53890522 26.49445801 19.20407104 27.66555786 C21.26164006 31.28295142 23.35772765 34.87438343 25.48828125 38.44921875 C25.99601074 39.30555908 26.50374023 40.16189941 27.02685547 41.04418945 C27.96418665 42.62112809 28.90813493 44.19415963 29.85986328 45.76245117 C32.20367297 49.73186483 33.86185106 53.01045871 34.09765625 57.7265625 C32.49353777 61.25562317 31.35606263 62.55429158 28.09765625 64.7265625 C25.22265625 65.1640625 25.22265625 65.1640625 22.09765625 64.7265625 C18.0010184 61.21138293 15.34658548 57.19116044 12.72265625 52.5390625 C12.31200928 51.82580811 11.9013623 51.11255371 11.47827148 50.37768555 C10.54764211 48.76010275 9.62036788 47.14058672 8.69580078 45.51953125 C6.88316502 42.35171073 5.05186449 39.19507536 3.21875 36.0390625 C1.8653252 33.70605375 0.51269442 31.37258534 -0.83984375 29.0390625 C-1.49065918 27.91669189 -2.14147461 26.79432129 -2.81201172 25.63793945 C-3.73651123 24.03631958 -3.73651123 24.03631958 -4.6796875 22.40234375 C-5.50327759 20.9778894 -5.50327759 20.9778894 -6.34350586 19.5246582 C-10.91421817 11.3202833 -10.91421817 11.3202833 -10.83984375 7.6015625 C-8.90603637 1.67121986 -6.1756032 0.31921607 0 0 Z " fill="#000000" transform="translate(106.90234375,27.2734375)"/>
<path d="M0 0 C2.89479637 1.73687782 3.01335881 3.05152682 3.875 6.375 C4.01899741 10.55092499 3.43932935 11.69948246 1 15 C-1.37817383 16.73828125 -1.37817383 16.73828125 -4.20703125 18.3125 C-5.78436035 19.20461182 -5.78436035 19.20461182 -7.39355469 20.11474609 C-8.52180664 20.73687988 -9.65005859 21.35901367 -10.8125 22 C-12.57320504 22.98674773 -14.33161074 23.97750695 -16.08987427 24.96859741 C-17.28671403 25.64291331 -18.48437356 26.3157762 -19.68283081 26.98721313 C-23.63060799 29.20434955 -27.52746811 31.49270752 -31.40234375 33.8359375 C-32.39065186 34.43277344 -33.37895996 35.02960938 -34.3972168 35.64453125 C-36.2581618 36.77336122 -38.11530058 37.90849709 -39.96801758 39.05078125 C-47.84204062 43.79556868 -47.84204062 43.79556868 -53 44 C-56.84624466 42.95102418 -57.73691641 42.39462539 -60 39 C-60.53636364 33.36818182 -60.53636364 33.36818182 -60 31 C-57.23757014 27.86890223 -54.34493238 25.84239663 -50.73046875 23.78515625 C-49.68737549 23.18703125 -48.64428223 22.58890625 -47.56958008 21.97265625 C-46.45349365 21.34230469 -45.33740723 20.71195313 -44.1875 20.0625 C-43.02675935 19.4039586 -41.86619839 18.74510038 -40.70581055 18.0859375 C-38.92013244 17.07178716 -37.13410432 16.05830287 -35.34645081 15.04763794 C-31.33869409 12.77770453 -27.36990477 10.44958445 -23.4140625 8.08984375 C-22.38514893 7.48454834 -21.35623535 6.87925293 -20.29614258 6.25561523 C-18.34753524 5.10902859 -16.4068069 3.94891525 -14.4753418 2.77368164 C-9.13354398 -0.33192405 -6.03153376 -1.85463719 0 0 Z " fill="#000000" transform="translate(366,97)"/>
<path d="M0 0 C3.38677089 2.45000447 4.78698584 3.86392446 5.5625 8 C4.70386495 12.57938692 2.26678898 15.1138274 -1.50756836 17.75415039 C-2.44221924 18.28000732 -3.37687012 18.80586426 -4.33984375 19.34765625 C-5.39365234 19.94755371 -6.44746094 20.54745117 -7.53320312 21.16552734 C-8.65662109 21.79152832 -9.78003906 22.4175293 -10.9375 23.0625 C-12.10016491 23.71988432 -13.26226916 24.37826117 -14.42382812 25.03759766 C-16.78869422 26.37826473 -19.15648879 27.71351714 -21.52685547 29.04443359 C-26.70169538 31.95814565 -31.84922401 34.91904077 -37 37.875 C-38.70777392 38.85254045 -40.41605584 39.82919431 -42.125 40.8046875 C-42.82882813 41.20671387 -43.53265625 41.60874023 -44.2578125 42.02294922 C-47.76217521 43.98826026 -49.9245087 44.39955797 -54 44 C-56.875 42.5 -56.875 42.5 -59 40 C-59.84577114 34.67164179 -59.84577114 34.67164179 -59 32 C-54.63053645 26.35213445 -48.1265117 23.37533817 -42 19.9375 C-40.8384495 19.28046072 -39.67723894 18.62282014 -38.51635742 17.96459961 C-36.74559908 16.96073949 -34.97448936 15.9575656 -33.20146179 14.9577179 C-29.39114134 12.80544952 -25.61860123 10.59822992 -21.86328125 8.3515625 C-20.92291016 7.79476807 -19.98253906 7.23797363 -19.01367188 6.66430664 C-17.25699407 5.62258908 -15.5065737 4.57022107 -13.76367188 3.50561523 C-9.02151656 0.72408455 -5.66471154 -0.8204557 0 0 Z " fill="#000000" transform="translate(87,257)"/>
<path d="M0 0 C2.84451034 2.41783379 3.84421255 3.9317432 4.3828125 7.625 C3.84190134 12.39384945 1.76071286 15.76511385 -0.625 19.875 C-1.1099292 20.73125977 -1.5948584 21.58751953 -2.09448242 22.46972656 C-3.71608689 25.32113502 -5.35781622 28.16040029 -7 31 C-8.21255391 33.12221627 -9.42478652 35.24461615 -10.63671875 37.3671875 C-11.86056661 39.49560452 -13.08580383 41.62322331 -14.3125 43.75 C-14.88629395 44.7488623 -15.46008789 45.74772461 -16.05126953 46.77685547 C-24.89026334 61.94513167 -24.89026334 61.94513167 -29 64 C-33.0130324 64.53507099 -34.53928033 64.33051628 -37.875 61.9375 C-40.5874744 58.18790304 -40.4683401 56.57099939 -40 52 C-38.9114107 49.17815514 -37.42512134 46.65401674 -35.875 44.0625 C-35.43704102 43.30396729 -34.99908203 42.54543457 -34.54785156 41.76391602 C-33.57797139 40.08904876 -32.60103872 38.41825137 -31.61816406 36.75097656 C-29.87018067 33.7792993 -28.1486388 30.79324534 -26.4296875 27.8046875 C-9.43016636 -1.64002893 -9.43016636 -1.64002893 0 0 Z " fill="#000000" transform="translate(297,28)"/>
<path d="M0 0 C1.75213051 -0.00956978 1.75213051 -0.00956978 3.53965759 -0.01933289 C5.43343895 -0.02100212 5.43343895 -0.02100212 7.36547852 -0.02270508 C8.66131363 -0.02603348 9.95714874 -0.02936188 11.29225159 -0.03279114 C14.03517489 -0.03877695 16.77806672 -0.04063158 19.52099609 -0.04003906 C23.03270123 -0.03993743 26.54420424 -0.05359334 30.05586147 -0.07081127 C33.40907029 -0.08461433 36.76224164 -0.08402021 40.11547852 -0.08520508 C41.37597519 -0.09239059 42.63647186 -0.09957611 43.93516541 -0.10697937 C45.10640457 -0.10390274 46.27764374 -0.10082611 47.484375 -0.09765625 C48.5145726 -0.09908127 49.5447702 -0.10050629 50.60618591 -0.10197449 C53.39895204 0.15369206 54.98428521 0.5991648 57.30688477 2.14526367 C59.80720131 5.89573849 59.84292031 7.70382633 59.30688477 12.14526367 C57.66287575 14.80990911 56.99883545 15.72966638 54.30688477 17.14526367 C49.67482471 17.90003227 45.08071749 17.8212942 40.39672852 17.77416992 C39.02339999 17.77499916 37.65007156 17.77746061 36.27674866 17.78147888 C33.40424583 17.78433209 30.53252482 17.76968262 27.66015625 17.7421875 C23.9822411 17.70807144 20.30572033 17.71413707 16.627738 17.73285007 C13.79403602 17.74342803 10.96065747 17.73447596 8.12698555 17.71946526 C6.1129041 17.71177935 4.09878343 17.71913107 2.08470154 17.72669983 C0.8598555 17.71086349 -0.36499054 17.69502716 -1.62695312 17.67871094 C-2.70441299 17.67251236 -3.78187286 17.66631378 -4.89198303 17.65992737 C-8.35824355 17.02305687 -9.54524587 15.88560904 -11.69311523 13.14526367 C-12.18920898 10.89135742 -12.18920898 10.89135742 -12.13061523 8.58276367 C-12.12932617 7.81834961 -12.12803711 7.05393555 -12.12670898 6.26635742 C-11.59068511 3.64418656 -10.79031166 2.76874044 -8.69311523 1.14526367 C-5.54200819 0.09489466 -3.30847757 0.01225104 0 0 Z " fill="#000000" transform="translate(14.693115234375,189.854736328125)"/>
<path d="M0 0 C0.77988281 -0.03738281 1.55976563 -0.07476562 2.36328125 -0.11328125 C5.60757245 0.48105109 6.63924442 1.7603951 8.6875 4.3125 C9.2021637 7.1136322 9.2021637 7.1136322 9.22094727 10.37866211 C9.2367836 11.60350815 9.25261993 12.82835419 9.26893616 14.09031677 C9.26149635 16.07008263 9.26149635 16.07008263 9.25390625 18.08984375 C9.25914331 19.46220827 9.26542009 20.83456918 9.27268982 22.20692444 C9.28309021 25.08107457 9.27853914 27.95472951 9.26391602 30.82885742 C9.2467368 34.50571887 9.27021133 38.18101632 9.30540562 41.85770321 C9.32740639 44.69143458 9.32593182 47.52479331 9.3176403 50.35858345 C9.31642517 52.37100936 9.33633722 54.38341225 9.35658264 56.39573669 C9.25298386 66.54637817 9.25298386 66.54637817 6.37084961 69.64672852 C2.83293538 71.84299717 0.7788772 71.98199809 -3.3125 71.3125 C-5.67747439 69.44541495 -6.97280715 67.99188569 -8.3125 65.3125 C-8.41882177 63.46019774 -8.46131706 61.6040896 -8.47363281 59.7487793 C-8.48324036 58.58384445 -8.4928479 57.41890961 -8.50274658 56.21867371 C-8.50699646 54.95412857 -8.51124634 53.68958344 -8.515625 52.38671875 C-8.52132507 51.09184036 -8.52702515 49.79696198 -8.53289795 48.46284485 C-8.54340798 45.71814582 -8.54925028 42.97347608 -8.55273438 40.22875977 C-8.55821208 36.71815842 -8.582224 33.20794631 -8.61070633 29.69746685 C-8.63385754 26.34389166 -8.63578434 22.99036972 -8.640625 19.63671875 C-8.6529718 18.37824631 -8.6653186 17.11977386 -8.67803955 15.82316589 C-8.67503845 14.64877457 -8.67203735 13.47438324 -8.66894531 12.2644043 C-8.67259094 11.2334111 -8.67623657 10.20241791 -8.67999268 9.1401825 C-7.9254871 3.33461857 -5.71482018 0.17771127 0 0 Z " fill="#000000" transform="translate(198.3125,2.6875)"/>
<path d="M0 0 C4.3561505 1.16640095 7.11387786 4.39293646 10.14453125 7.57421875 C11.16353516 8.56421875 11.16353516 8.56421875 12.203125 9.57421875 C15.3444258 12.81032742 16.98121516 14.77124796 17.89453125 19.26171875 C16.92778971 23.53149387 15.72085592 25.06318228 12.14453125 27.57421875 C8.83203125 28.32421875 8.83203125 28.32421875 5.14453125 27.57421875 C2.10686087 25.58505392 -0.33212445 23.17148915 -2.85546875 20.57421875 C-3.53609375 19.92582031 -4.21671875 19.27742188 -4.91796875 18.609375 C-8.07338522 15.39670299 -10.29427893 12.94641916 -10.54296875 8.32421875 C-9.85546875 4.57421875 -9.85546875 4.57421875 -8.35546875 2.07421875 C-5.54249272 0.38643313 -3.29200171 -0.17712069 0 0 Z " fill="#000000" transform="translate(95.85546875,85.42578125)"/>
<path d="M0 0 C9.06593425 1.98606732 9.06593425 1.98606732 13 4 C15.15826959 7.36922416 16.03239368 9.17396105 15.875 13.1875 C14.57380074 17.3699262 14.57380074 17.3699262 12 19 C6.0686302 20.38096778 1.89097629 19.53187907 -3.75 17.75 C-4.50410156 17.53214844 -5.25820313 17.31429687 -6.03515625 17.08984375 C-9.82149674 15.93981848 -12.40642705 15.12726154 -15 12 C-16.09445546 8.40393206 -16.31966474 6.70326243 -14.75 3.25 C-10.41607524 -2.32218897 -6.28814051 -1.13203055 0 0 Z " fill="#000000" transform="translate(63,153)"/>
<path d="M0 0 C2.9375 2.0625 2.9375 2.0625 5 5 C5.5625 8.5625 5.5625 8.5625 5 12 C0.04736359 18.25843841 -8.95567326 19.61292355 -16.5 20.9375 C-20.40091221 21.00715915 -22.00672836 20.44904043 -25 18 C-26.56935594 14.86128812 -26.35201103 12.46144178 -26 9 C-22.50660485 4.68539628 -19.4387253 3.10023003 -14.125 1.6875 C-12.36542969 1.19830078 -12.36542969 1.19830078 -10.5703125 0.69921875 C-6.90783683 -0.01804946 -3.72099387 -0.26931198 0 0 Z " fill="#000000" transform="translate(345,152)"/>
<path d="M0 0 C3.66990089 3.75394442 4.99096732 7.34399144 6.3125 12.375 C6.65925781 13.64085937 7.00601563 14.90671875 7.36328125 16.2109375 C8.11605182 20.69061511 8.31608283 24.92197448 5.8125 28.875 C3.14000274 30.5337914 1.14416347 30.87669947 -2 31 C-5.7703106 29.62590982 -7.57017988 28.83962123 -9.42578125 25.21484375 C-14.28614762 7.25075834 -14.28614762 7.25075834 -11.25 1.9375 C-7.44567136 -1.33844967 -4.70171059 -1.34334588 0 0 Z " fill="#000000" transform="translate(165,48)"/>
<path d="M0 0 C1.93481132 2.9409132 2.49059193 4.85150456 2.5625 8.375 C1.54318017 11.29705018 0.60489189 12.83155075 -2.17578125 14.28125 C-4.24147823 15.08346242 -6.31352812 15.74450742 -8.4375 16.375 C-9.571875 16.766875 -10.70625 17.15875 -11.875 17.5625 C-16.14798238 18.53703984 -20.0824078 19.04890208 -24.4375 18.375 C-27.56535483 16.34189436 -28.24684494 14.97238585 -29.375 11.4375 C-29.45339722 7.59603629 -28.99929336 6.24731377 -26.4375 3.375 C-23.86761815 2.00753993 -21.22908005 1.17689014 -18.4375 0.375 C-17.77105469 0.16875 -17.10460937 -0.0375 -16.41796875 -0.25 C-10.98803841 -1.79222874 -4.95993688 -3.30662458 0 0 Z " fill="#000000" transform="translate(76.4375,226.625)"/>
<path d="M0 0 C2.69385901 4.04078851 2.53756689 7.33029243 2 12 C-1.1118848 26.11845269 -1.1118848 26.11845269 -5 29 C-8.83394777 30.19278375 -10.54482368 30.18035288 -14.3125 28.6875 C-17 27 -17 27 -18 25 C-18.73285185 17.37834079 -16.82192981 10.07224384 -14 3 C-9.54526401 -2.38132108 -6.42305388 -2.33565596 0 0 Z " fill="#000000" transform="translate(243,49)"/>
<path d="M0 0 C3.06458538 2.04305692 3.82153128 3.44079802 4.9375 6.9375 C5.03752026 11.83849292 2.61606841 14.32992262 -0.62890625 17.859375 C-1.60160282 18.82813352 -2.57957763 19.7916184 -3.5625 20.75 C-4.05685547 21.24371094 -4.55121094 21.73742187 -5.06054688 22.24609375 C-9.73023897 26.85891544 -9.73023897 26.85891544 -13.8125 27.3125 C-17.82232894 26.91937952 -19.28446644 25.94829358 -22 23 C-23 20.0625 -23 20.0625 -23 17 C-20.80386493 12.59273917 -17.69709113 9.20013367 -14.3125 5.6875 C-13.82072266 5.13771484 -13.32894531 4.58792969 -12.82226562 4.02148438 C-8.65714682 -0.28264995 -5.93026677 -0.72124866 0 0 Z " fill="#000000" transform="translate(307,86)"/>
<path d="M0 0 C-2.92728117 2.92728117 -5.72363769 2.94570712 -9.76902229 3.11778647 C-10.78477417 3.11436898 -11.80052605 3.1109515 -12.8470583 3.10743046 C-14.61239744 3.10519194 -14.61239744 3.10519194 -16.41339999 3.10290819 C-18.3467552 3.09270251 -18.3467552 3.09270251 -20.31916809 3.08229065 C-21.7052904 3.0785956 -23.09141396 3.07534664 -24.47753829 3.07250541 C-28.28579325 3.06340785 -32.09400036 3.04797791 -35.90222967 3.03152263 C-40.00919032 3.01488291 -44.11616682 3.00410349 -48.22314453 2.99261475 C-55.33853835 2.97190711 -62.45391162 2.94748102 -69.56928444 2.92053413 C-79.85693759 2.88157876 -90.14460289 2.84822389 -100.43227979 2.81623887 C-117.12308052 2.76419393 -133.81386269 2.7076154 -150.50463867 2.64819336 C-166.71882403 2.59047776 -182.93301438 2.53489262 -199.1472168 2.48217773 C-200.64621165 2.47730316 -200.64621165 2.47730316 -202.17548922 2.4723301 C-207.18879981 2.45604049 -212.20211053 2.43979281 -217.21542132 2.42356598 C-258.81030379 2.28887956 -300.40515877 2.14683874 -342 2 C-342 1.67 -342 1.34 -342 1 C-299.58654854 0.87246544 -257.17309671 0.74505697 -214.75964436 0.61781773 C-209.75284884 0.60279737 -204.74605333 0.58777596 -199.73925781 0.57275391 C-198.24410754 0.56826798 -198.24410754 0.56826798 -196.71875221 0.56369144 C-180.57723997 0.51525932 -164.43572799 0.46674258 -148.2942161 0.41819459 C-131.73271599 0.36838531 -115.17121562 0.31866691 -98.60971498 0.26903296 C-88.38962792 0.23840102 -78.16954107 0.20769812 -67.94945449 0.17690456 C-60.94207015 0.1557978 -53.93468556 0.13477929 -46.92730075 0.11383021 C-42.88387745 0.1017395 -38.84045427 0.08960984 -34.7970314 0.07737541 C-31.09330003 0.06616967 -27.38956834 0.05507505 -23.68583637 0.0440678 C-21.71538094 0.03818311 -19.74492587 0.0321804 -17.77447081 0.02617311 C-11.84961611 0.00867361 -5.92488064 -0.00446664 0 0 Z " fill="#000720" transform="translate(418,492)"/>
<path d="M0 0 C-3.95480412 1.31826804 -6.11391601 0.29536133 -10 -1 C-10.495 -1.495 -10.495 -1.495 -11 -2 C-12.32781878 -2.20604085 -13.66295895 -2.3662959 -15 -2.5 C-18.88888889 -2.88888889 -18.88888889 -2.88888889 -20 -4 C-21.37440981 -4.0750941 -22.75260161 -4.08316394 -24.12890625 -4.0625 C-24.99233643 -4.05412109 -25.8557666 -4.04574219 -26.74536133 -4.03710938 C-28.13984497 -4.01874023 -28.13984497 -4.01874023 -29.5625 -4 C-38.75850967 -3.93068532 -47.83287346 -4.27389097 -57 -5 C-57 -4.34 -57 -3.68 -57 -3 C-60.06246747 -1.21590198 -62.22079273 -0.77119979 -65.75 -0.875 C-66.54921875 -0.89304687 -67.3484375 -0.91109375 -68.171875 -0.9296875 C-68.77515625 -0.95289062 -69.3784375 -0.97609375 -70 -1 C-51.1512221 -13.56585193 -19.53900353 -8.72009237 0 0 Z " fill="#F0D74E" transform="translate(236,116)"/>
<path d="M0 0 C0 0.33 0 0.66 0 1 C-1.20011719 0.98428955 -2.40023437 0.9685791 -3.63671875 0.95239258 C-8.11695566 0.89782544 -12.59716355 0.86355293 -17.07763672 0.83520508 C-19.01160635 0.82017925 -20.94554226 0.79975274 -22.87939453 0.77368164 C-25.66968136 0.73702409 -28.45951511 0.72021132 -31.25 0.70703125 C-32.533302 0.68380547 -32.533302 0.68380547 -33.8425293 0.66011047 C-39.60717592 0.65851799 -43.67140936 1.83132936 -49 4 C-50.32 4 -51.64 4 -53 4 C-53 4.66 -53 5.32 -53 6 C-55.64 6.33 -58.28 6.66 -61 7 C-61 7.66 -61 8.32 -61 9 C-62.32 9 -63.64 9 -65 9 C-65 8.34 -65 7.68 -65 7 C-44.07328486 -1.74335358 -22.44010585 -5.51160494 0 0 Z " fill="#3B88D4" transform="translate(322,205)"/>
<path d="M0 0 C0.99 0.33 1.98 0.66 3 1 C2.75 3.375 2.75 3.375 2 6 C0.6846659 6.70151152 -0.65117592 7.36525925 -2 8 C-3.89858275 10.30305165 -3.89858275 10.30305165 -5 13 C-4.79356801 15.25328412 -4.79356801 15.25328412 -4 17 C-4.99 17 -5.98 17 -7 17 C-7.33 17.99 -7.66 18.98 -8 20 C-9.4375 21.6875 -9.4375 21.6875 -11 23 C-11.66 23 -12.32 23 -13 23 C-13.12375 23.639375 -13.2475 24.27875 -13.375 24.9375 C-13.58125 25.618125 -13.7875 26.29875 -14 27 C-14.66 27.33 -15.32 27.66 -16 28 C-13.25469419 17.38481752 -6.92216565 8.38859254 0 0 Z " fill="#F8C72D" transform="translate(131,138)"/>
<path d="M0 0 C8.48165146 4.50587734 14.43505219 11.3308063 20 19 C19.01 19 18.02 19 17 19 C17 18.34 17 17.68 17 17 C16.38125 16.9175 15.7625 16.835 15.125 16.75 C13 16 13 16 11.75 13.9375 C11.5025 13.298125 11.255 12.65875 11 12 C10.01 12 9.02 12 8 12 C8 11.34 8 10.68 8 10 C5.03 9.505 5.03 9.505 2 9 C2 8.34 2 7.68 2 7 C0.68 6.34 -0.64 5.68 -2 5 C-2 4.34 -2 3.68 -2 3 C-1.34 3 -0.68 3 0 3 C0 2.01 0 1.02 0 0 Z " fill="#3191EA" transform="translate(356,222)"/>
<path d="M0 0 C2 1 2 1 2.8515625 3.546875 C3.10679687 4.60390625 3.36203125 5.6609375 3.625 6.75 C4.01558594 8.32007813 4.01558594 8.32007813 4.4140625 9.921875 C4.94753934 12.72440665 5.04502472 15.16284224 5 18 C4.0553186 18.21148682 4.0553186 18.21148682 3.09155273 18.42724609 C0.20639335 19.07439951 -2.67805387 19.72467522 -5.5625 20.375 C-6.55314453 20.59671875 -7.54378906 20.8184375 -8.56445312 21.046875 C-13.76117659 22.22088562 -18.89682084 23.46833052 -24 25 C-24 24.34 -24 23.68 -24 23 C-16.97570589 20.36435736 -10.71791109 18.55614969 -3.1796875 18.46875 C-0.85638723 18.22365569 -0.85638723 18.22365569 0.296875 16.203125 C1.28543807 13.10562738 1.1240666 10.22573171 1 7 C0.34 7 -0.32 7 -1 7 C-0.67 4.69 -0.34 2.38 0 0 Z " fill="#E4D04D" transform="translate(283,169)"/>
<path d="M0 0 C2.54829953 0.33271567 5.06883011 0.49650032 7.6328125 0.65625 C10.12078825 1.01754021 11.82958246 1.75976141 14 3 C14 3.66 14 4.32 14 5 C12.74123047 4.67515625 12.74123047 4.67515625 11.45703125 4.34375 C0.25258879 1.74979548 -10.53796507 1.6770558 -22 2 C-22.33 1.34 -22.66 0.68 -23 0 C-19.65800366 -1.11399878 -16.69847376 -1.39959267 -13.1875 -1.6875 C-11.98480469 -1.79449219 -10.78210938 -1.90148437 -9.54296875 -2.01171875 C-5.86893433 -1.99956649 -3.42195838 -1.25239021 0 0 Z " fill="#EBC547" transform="translate(158,262)"/>
<path d="M0 0 C0.66 0.33 1.32 0.66 2 1 C1 3 1 3 -0.75 3.75 C-3.0638075 5.03544861 -3.96561825 6.06979871 -5.5625 8.125 C-6.366875 9.07375 -7.17125 10.0225 -8 11 C-8.99 11 -9.98 11 -11 11 C-11.061875 11.7425 -11.12375 12.485 -11.1875 13.25 C-12.2452497 16.83007591 -14.06862656 17.80146992 -17 20 C-17.33 20.99 -17.66 21.98 -18 23 C-18.99 23.33 -19.98 23.66 -21 24 C-17.43334757 13.87647139 -8.77085676 5.84723784 0 0 Z " fill="#3382CF" transform="translate(48,376)"/>
<path d="M0 0 C0.33 0.66 0.66 1.32 1 2 C-5.14285714 7.57142857 -5.14285714 7.57142857 -10 8 C-10.33 8.99 -10.66 9.98 -11 11 C-11.99 11 -12.98 11 -14 11 C-14.061875 11.5775 -14.12375 12.155 -14.1875 12.75 C-15.32027301 15.88690987 -17.34197595 17.09167504 -20 19 C-20.99 18.34 -21.98 17.68 -23 17 C-15.98853366 10.19257104 -8.28099456 5.08874772 0 0 Z " fill="#3484D2" transform="translate(255,213)"/>
<path d="M0 0 C0.866333 2.88737389 1.03210517 5.02189802 0.59765625 7.99609375 C-0.12735998 13.67402982 -0.34249349 19.3459374 -0.5625 25.0625 C-0.60568359 26.11888672 -0.64886719 27.17527344 -0.69335938 28.26367188 C-0.79837337 30.84234879 -0.90052877 33.42110435 -1 36 C-1.33 36 -1.66 36 -2 36 C-3.9847203 23.75555619 -3.83974375 11.86206552 0 0 Z " fill="#357BBE" transform="translate(22,408)"/>
<path d="M0 0 C0.33 0 0.66 0 1 0 C1.33 11.55 1.66 23.1 2 35 C1.67 35 1.34 35 1 35 C-0.79794131 28.61088714 -1.19289407 22.40809415 -1.1875 15.8125 C-1.18814453 15.05275879 -1.18878906 14.29301758 -1.18945312 13.51025391 C-1.14539699 8.91539939 -0.75056489 4.53341195 0 0 Z " fill="#C49F39" transform="translate(109,183)"/>
<path d="M0 0 C1.46373047 0.01353516 1.46373047 0.01353516 2.95703125 0.02734375 C4.06111328 0.04474609 4.06111328 0.04474609 5.1875 0.0625 C4.8575 0.7225 4.5275 1.3825 4.1875 2.0625 C2.2265625 2.40625 2.2265625 2.40625 -0.1875 2.5625 C-3.70901464 2.79191463 -4.74189296 3.01542864 -7.8125 5.0625 C-9.47916667 5.0625 -11.14583333 5.0625 -12.8125 5.0625 C-13.8025 5.7225 -14.7925 6.3825 -15.8125 7.0625 C-17.1325 6.4025 -18.4525 5.7425 -19.8125 5.0625 C-18.41971983 4.41010842 -17.02310788 3.76589448 -15.625 3.125 C-14.84769531 2.76535156 -14.07039063 2.40570313 -13.26953125 2.03515625 C-8.81507167 0.27178513 -4.76501013 -0.05740976 0 0 Z " fill="#3585D0" transform="translate(75.8125,366.9375)"/>
<path d="M0 0 C4.0366596 0.60182925 7.06292431 1.90261098 10.625 3.875 C11.56601563 4.38804687 12.50703125 4.90109375 13.4765625 5.4296875 C16 7 16 7 19 10 C11.575 9.01 11.575 9.01 4 8 C5.32 7.67 6.64 7.34 8 7 C8 6.34 8 5.68 8 5 C6.68 4.67 5.36 4.34 4 4 C4 3.34 4 2.68 4 2 C2.68 2 1.36 2 0 2 C0 1.34 0 0.68 0 0 Z " fill="#358ADE" transform="translate(168,283)"/>
<path d="M0 0 C1.43088528 2.86177057 0.59991697 4.93375773 0 8 C0.66 8 1.32 8 2 8 C2 9.32 2 10.64 2 12 C2.89203125 11.97679687 3.7840625 11.95359375 4.703125 11.9296875 C5.87359375 11.91164063 7.0440625 11.89359375 8.25 11.875 C9.99023438 11.84019531 9.99023438 11.84019531 11.765625 11.8046875 C14.82786046 11.9896051 16.44202751 12.39176977 19 14 C16.43571485 14.13559675 13.87864784 14.23433188 11.3125 14.3125 C10.59126953 14.35439453 9.87003906 14.39628906 9.12695312 14.43945312 C4.94139635 14.53501378 3.44319258 14.34425533 0.0078125 11.67578125 C-2 9 -2 9 -2.4375 5.875 C-2 3 -2 3 0 0 Z " fill="#071B36" transform="translate(387,331)"/>
<path d="M0 0 C0 0.99 0 1.98 0 3 C-1.11375 3.45375 -2.2275 3.9075 -3.375 4.375 C-6.96199008 5.72465986 -6.96199008 5.72465986 -9 8 C-10.875 9.25 -10.875 9.25 -13 10 C-15.1328125 9.046875 -15.1328125 9.046875 -17 8 C-15.44038638 7.03697644 -13.87716775 6.07978996 -12.3125 5.125 C-11.44238281 4.59132813 -10.57226562 4.05765625 -9.67578125 3.5078125 C-3.4507772 0 -3.4507772 0 0 0 Z " fill="#E9BC3F" transform="translate(166,115)"/>
<path d="M0 0 C0.33 0.66 0.66 1.32 1 2 C0.0625 4.125 0.0625 4.125 -1 6 C-1.66 6 -2.32 6 -3 6 C-2.67 7.65 -2.34 9.3 -2 11 C-2.928125 11.3403125 -2.928125 11.3403125 -3.875 11.6875 C-6.70348348 13.4345045 -7.06701694 14.84221117 -8 18 C-8.37593066 19.9924325 -8.71979545 21.9918674 -9 24 C-9.99 24 -10.98 24 -12 24 C-9.42132828 15.32056837 -6.13209189 6.81343543 0 0 Z " fill="#3582CD" transform="translate(102,301)"/>
<path d="M0 0 C-1.56159059 0.48212214 -3.12431928 0.96055873 -4.6875 1.4375 C-5.55761719 1.70433594 -6.42773438 1.97117188 -7.32421875 2.24609375 C-9.87025921 2.96344529 -12.4003423 3.517541 -15 4 C-15 4.66 -15 5.32 -15 6 C-17.64 6.33 -20.28 6.66 -23 7 C-23 7.66 -23 8.32 -23 9 C-24.32 9 -25.64 9 -27 9 C-27 8.34 -27 7.68 -27 7 C-5.09456773 -1.68663694 -5.09456773 -1.68663694 0 0 Z " fill="#3482CC" transform="translate(284,205)"/>
<path d="M0 0 C0.33 0 0.66 0 1 0 C0.91253716 1.43861294 0.80434652 2.87597508 0.6875 4.3125 C0.62949219 5.11300781 0.57148437 5.91351563 0.51171875 6.73828125 C-0.08838825 9.39066259 -0.85708967 10.36503879 -3 12 C-3.66 12 -4.32 12 -5 12 C-5.12375 12.639375 -5.2475 13.27875 -5.375 13.9375 C-5.58125 14.618125 -5.7875 15.29875 -6 16 C-6.66 16.33 -7.32 16.66 -8 17 C-6.22057153 10.75029999 -3.95040926 5.21510863 0 0 Z " fill="#E6BB43" transform="translate(123,149)"/>
<path d="M0 0 C0 0.33 0 0.66 0 1 C-2.97 1 -5.94 1 -9 1 C-9 1.66 -9 2.32 -9 3 C-12.06246747 4.78409802 -14.22079273 5.22880021 -17.75 5.125 C-18.54921875 5.10695313 -19.3484375 5.08890625 -20.171875 5.0703125 C-20.77515625 5.04710938 -21.3784375 5.02390625 -22 5 C-18.71918079 2.8127872 -15.90253728 1.91860764 -12.125 0.8125 C-10.91070312 0.44769531 -9.69640625 0.08289063 -8.4453125 -0.29296875 C-5.11733702 -0.97592063 -3.21295135 -0.95899879 0 0 Z " fill="#D7B041" transform="translate(188,110)"/>
<path d="M0 0 C5.55216953 2.52371342 8.514344 7.20847864 12 12 C11.01 12 10.02 12 9 12 C9 11.34 9 10.68 9 10 C8.38125 9.9175 7.7625 9.835 7.125 9.75 C5 9 5 9 3.75 6.9375 C3.37875 5.9784375 3.37875 5.9784375 3 5 C2.01 5 1.02 5 0 5 C0 3.35 0 1.7 0 0 Z " fill="#3688DE" transform="translate(364,229)"/>
<path d="M0 0 C2.475 0.495 2.475 0.495 5 1 C5.28875 1.928125 5.5775 2.85625 5.875 3.8125 C6.8875 7.09791667 6.8875 7.09791667 9 10 C8.67 10.66 8.34 11.32 8 12 C8.66 12 9.32 12 10 12 C10.33 13.65 10.66 15.3 11 17 C10.34 17 9.68 17 9 17 C2.66514806 5.47835991 2.66514806 5.47835991 0 0 Z " fill="#020C1C" transform="translate(475,348)"/>
<path d="M0 0 C1.1700097 3.91736581 0.69584017 6.97959015 0 11 C-0.66 11 -1.32 11 -2 11 C-2.12117187 11.61488281 -2.24234375 12.22976563 -2.3671875 12.86328125 C-2.53476563 13.67152344 -2.70234375 14.47976563 -2.875 15.3125 C-3.03742188 16.11300781 -3.19984375 16.91351563 -3.3671875 17.73828125 C-4 20 -4 20 -6 23 C-5.50387003 14.89654389 -2.679915 7.59474067 0 0 Z " fill="#347EC4" transform="translate(211,260)"/>
<path d="M0 0 C0 3.90112552 -1.28087194 5.0419816 -3.6875 8.0625 C-4.71423828 9.37927734 -4.71423828 9.37927734 -5.76171875 10.72265625 C-8.09905952 13.1007883 -9.84649597 14.02246898 -13 15 C-9.09489511 9.49280079 -4.90282356 4.64172645 0 0 Z " fill="#292303" transform="translate(224,215)"/>
<path d="M0 0 C3.00989089 1.50494544 3.43952981 3.76823357 4.75 6.8125 C5.45382812 8.39998047 5.45382812 8.39998047 6.171875 10.01953125 C7 13 7 13 6.140625 15.38671875 C5.76421875 15.91910156 5.3878125 16.45148438 5 17 C3.68373308 13.38026598 3 10.90432869 3 7 C2.34 7 1.68 7 1 7 C1 5.68 1 4.36 1 3 C0.01 2.67 -0.98 2.34 -2 2 C-1.34 2 -0.68 2 0 2 C0 1.34 0 0.68 0 0 Z " fill="#579ED1" transform="translate(482,361)"/>
<path d="M0 0 C0.66 0.66 1.32 1.32 2 2 C1.67 2.66 1.34 3.32 1 4 C0.55856839 7.97288453 0.67969987 9.53956856 3 12.875 C3.66 13.57625 4.32 14.2775 5 15 C2.03 14.505 2.03 14.505 -1 14 C-1.22331199 12.41870971 -1.42804644 10.83478911 -1.625 9.25 C-1.74101562 8.36828125 -1.85703125 7.4865625 -1.9765625 6.578125 C-2.00207817 3.77140122 -1.44843844 2.36615134 0 0 Z " fill="#5AA7E5" transform="translate(385,330)"/>
<path d="M0 0 C1.79341438 4.16673521 0.01173384 7.74663341 -1.4375 11.75 C-1.68048828 12.44738281 -1.92347656 13.14476562 -2.17382812 13.86328125 C-2.77310248 15.57885098 -3.38529885 17.28989715 -4 19 C-4.66 18.67 -5.32 18.34 -6 18 C-6 17.01 -6 16.02 -6 15 C-5.34 15 -4.68 15 -4 15 C-3.87882812 14.41992188 -3.75765625 13.83984375 -3.6328125 13.2421875 C-2.66264526 8.71971558 -1.56602217 4.36249034 0 0 Z " fill="#5AA9E3" transform="translate(490,419)"/>
<path d="M0 0 C6.93 0 13.86 0 21 0 C21 0.33 21 0.66 21 1 C20.07058594 1.06058594 19.14117187 1.12117188 18.18359375 1.18359375 C9.05853115 1.79571552 9.05853115 1.79571552 0 3 C0 2.01 0 1.02 0 0 Z " fill="#5CA7E4" transform="translate(392,345)"/>
<path d="M0 0 C1.07636719 0.00322266 2.15273438 0.00644531 3.26171875 0.00976562 C4.38964844 0.01814453 5.51757812 0.02652344 6.6796875 0.03515625 C7.81535156 0.03966797 8.95101563 0.04417969 10.12109375 0.04882812 C12.93234388 0.0606401 15.7434898 0.07711118 18.5546875 0.09765625 C18.5546875 0.42765625 18.5546875 0.75765625 18.5546875 1.09765625 C17.67731934 1.13524048 17.67731934 1.13524048 16.78222656 1.17358398 C14.12284279 1.28988587 11.46378347 1.41245692 8.8046875 1.53515625 C7.42410156 1.59413086 7.42410156 1.59413086 6.015625 1.65429688 C5.12617188 1.69619141 4.23671875 1.73808594 3.3203125 1.78125 C2.50336914 1.81790771 1.68642578 1.85456543 0.84472656 1.89233398 C-1.45418231 2.02237535 -1.45418231 2.02237535 -3.61816406 2.74243164 C-4.52260254 2.91826782 -4.52260254 2.91826782 -5.4453125 3.09765625 C-6.1053125 2.43765625 -6.7653125 1.77765625 -7.4453125 1.09765625 C-4.83580014 -0.20709993 -2.91829965 -0.01535947 0 0 Z " fill="#031126" transform="translate(395.4453125,328.90234375)"/>
<path d="M0 0 C0.33 0 0.66 0 1 0 C1.33 2.31 1.66 4.62 2 7 C1.401875 7.0825 0.80375 7.165 0.1875 7.25 C-2.5966296 8.20455872 -3.43311142 9.57132271 -5 12 C-5.66 11.67 -6.32 11.34 -7 11 C-5.85845641 9.16399255 -4.71165684 7.33125195 -3.5625 5.5 C-2.92441406 4.4790625 -2.28632813 3.458125 -1.62890625 2.40625 C-0.82259766 1.21515625 -0.82259766 1.21515625 0 0 Z " fill="#3385D2" transform="translate(222,241)"/>
<path d="M0 0 C1.1055189 0.93590504 2.20935453 1.87379858 3.3125 2.8125 C3.92738281 3.33457031 4.54226563 3.85664063 5.17578125 4.39453125 C6.85424679 5.87172469 8.43882034 7.40039131 10 9 C9.67 9.66 9.34 10.32 9 11 C8.01 11 7.02 11 6 11 C5.87625 10.071875 5.87625 10.071875 5.75 9.125 C5.37875 8.073125 5.37875 8.073125 5 7 C4.34 6.690625 3.68 6.38125 3 6.0625 C2.34 5.711875 1.68 5.36125 1 5 C0.25 2.375 0.25 2.375 0 0 Z " fill="#55A2DC" transform="translate(438,357)"/>
<path d="M0 0 C0.99 0 1.98 0 3 0 C3.33 0.66 3.66 1.32 4 2 C4.99 2.33 5.98 2.66 7 3 C8.37195574 4.29355827 9.71182656 5.62298702 11 7 C10.67 7.99 10.34 8.98 10 10 C8.72689688 9.06558465 7.456612 8.12732889 6.1875 7.1875 C5.47980469 6.66542969 4.77210938 6.14335937 4.04296875 5.60546875 C2.21468607 4.16871123 0.60103312 2.68184237 -1 1 C-0.67 0.67 -0.34 0.34 0 0 Z " fill="#54A0D6" transform="translate(440,337)"/>
<path d="M0 0 C0.66 0.99 1.32 1.98 2 3 C-3.94 6.465 -3.94 6.465 -10 10 C-10.33 9.34 -10.66 8.68 -11 8 C-10.67 7.34 -10.34 6.68 -10 6 C-8.68 6 -7.36 6 -6 6 C-5.67 5.01 -5.34 4.02 -5 3 C-2.4375 1.3125 -2.4375 1.3125 0 0 Z " fill="#EAD44B" transform="translate(247,196)"/>
<path d="M0 0 C0.33 0 0.66 0 1 0 C1.33 6.6 1.66 13.2 2 20 C-1.45015205 15.39979727 -1.22331682 13.11765168 -0.6875 7.75 C-0.62626953 7.00492187 -0.56503906 6.25984375 -0.50195312 5.4921875 C-0.3492857 3.66017845 -0.17660246 1.82985684 0 0 Z " fill="#000922" transform="translate(18,424)"/>
<path d="M0 0 C2.08627605 0.59392541 4.16893738 1.20055758 6.25 1.8125 C7.99023438 2.31716797 7.99023438 2.31716797 9.765625 2.83203125 C12.72201315 3.89961586 14.64347706 4.96429083 17 7 C12.15046881 6.21781755 7.62764021 4.59454269 3 3 C2.01 2.67 1.02 2.34 0 2 C0 1.34 0 0.68 0 0 Z " fill="#579CD2" transform="translate(415,346)"/>
<path d="M0 0 C6.61085476 0.48969295 11.94977014 2.33442742 18 5 C12.2054412 6.9315196 5.50094594 3.12317212 0 1 C0 0.67 0 0.34 0 0 Z " fill="#E7CB52" transform="translate(218,111)"/>
<path d="M0 0 C2.72675159 2.40689803 4.11966596 4.92471023 5.6875 8.1875 C6.12449219 9.08855469 6.56148438 9.98960937 7.01171875 10.91796875 C7.33785156 11.60503906 7.66398437 12.29210937 8 13 C7.01 13 6.02 13 5 13 C4.35004703 11.58521865 3.70521278 10.16808513 3.0625 8.75 C2.70285156 7.96109375 2.34320313 7.1721875 1.97265625 6.359375 C1.09966721 4.24176302 0.48661492 2.23330638 0 0 Z " fill="#DCC44B" transform="translate(273,148)"/>
<path d="M0 0 C0.33 0 0.66 0 1 0 C0.85866501 1.77119803 0.71176792 3.54195287 0.5625 5.3125 C0.48128906 6.29863281 0.40007812 7.28476562 0.31640625 8.30078125 C0 11 0 11 -1 14 C-1.66 14 -2.32 14 -3 14 C-3.33 12.68 -3.66 11.36 -4 10 C-3.01 10 -2.02 10 -1 10 C-1.01160156 9.36191406 -1.02320313 8.72382813 -1.03515625 8.06640625 C-1.04869141 6.82697266 -1.04869141 6.82697266 -1.0625 5.5625 C-1.07410156 4.73878906 -1.08570313 3.91507812 -1.09765625 3.06640625 C-1 1 -1 1 0 0 Z " fill="#010B28" transform="translate(204,281)"/>
<path d="M0 0 C0.66 0.33 1.32 0.66 2 1 C3.47180796 5.82425944 4.25376143 9.92477148 4 15 C3.67 15 3.34 15 3 15 C2.34 12.36 1.68 9.72 1 7 C0.34 7 -0.32 7 -1 7 C-0.67 4.69 -0.34 2.38 0 0 Z " fill="#E8D24E" transform="translate(283,169)"/>
<path d="M0 0 C0.99 0.33 1.98 0.66 3 1 C1.72920407 4.8123878 0.39322116 5.027197 -3 7 C-4.36984198 8.29579647 -5.7151049 9.61992749 -7 11 C-5.5140084 6.40693504 -3.14985318 3.56430755 0 0 Z " fill="#DEB545" transform="translate(131,138)"/>
<path d="M0 0 C1.32 0.33 2.64 0.66 4 1 C1.36 3.64 -1.28 6.28 -4 9 C-4.33 8.01 -4.66 7.02 -5 6 C-4.01 5.67 -3.02 5.34 -2 5 C-1.67 4.01 -1.34 3.02 -1 2 C-0.67 1.34 -0.34 0.68 0 0 Z " fill="#04162E" transform="translate(106,293)"/>
<path d="M0 0 C1.48280196 0.78483659 2.9611498 1.57809334 4.4375 2.375 C5.67306641 3.03628906 5.67306641 3.03628906 6.93359375 3.7109375 C9 5 9 5 10 7 C7.36 6.67 4.72 6.34 2 6 C2 4.68 2 3.36 2 2 C1.34 2 0.68 2 0 2 C0 1.34 0 0.68 0 0 Z " fill="#E1D04B" transform="translate(243,120)"/>
<path d="M0 0 C3.3 0.99 6.6 1.98 10 3 C9.67 3.99 9.34 4.98 9 6 C5.06326356 4.68775452 2.77280706 3.08089673 0 0 Z " fill="#3386D8" transform="translate(42,478)"/>
<path d="M0 0 C-3.79692186 2.82561627 -6.18569279 4.56638908 -11 4 C-7.64918101 0.31409911 -4.96535219 -1.77334007 0 0 Z " fill="#357DCA" transform="translate(131,283)"/>
<path d="M0 0 C0.33 0.66 0.66 1.32 1 2 C-0.65 3.98 -2.3 5.96 -4 8 C-4.66 7.01 -5.32 6.02 -6 5 C-4.02 3.35 -2.04 1.7 0 0 Z " fill="#E0B841" transform="translate(140,130)"/>
<path d="M0 0 C3.94727588 -0.17942163 6.5980513 -0.09350689 10 2 C10 2.66 10 3.32 10 4 C6.7 3.34 3.4 2.68 0 2 C0 1.34 0 0.68 0 0 Z " fill="#D6BC48" transform="translate(162,263)"/>
<path d="M0 0 C0.66 0 1.32 0 2 0 C1.54917531 1.46067199 1.08906463 2.91848032 0.625 4.375 C0.36976563 5.18710938 0.11453125 5.99921875 -0.1484375 6.8359375 C-1 9 -1 9 -3 11 C-3 7.88742431 -2.82638376 5.89234315 -2 3 C-1.34 3 -0.68 3 0 3 C0 2.01 0 1.02 0 0 Z " fill="#EBD54E" transform="translate(197,248)"/>
<path d="M0 0 C2 2 2 2 2 5 C-0.97 4.01 -3.94 3.02 -7 2 C-7 1.67 -7 1.34 -7 1 C-3.625 0.375 -3.625 0.375 0 0 Z " fill="#369AF7" transform="translate(353,223)"/>
<path d="M0 0 C3.3 0.33 6.6 0.66 10 1 C6.1496895 3.56687367 4.41430237 2.83288724 0 2 C0 1.34 0 0.68 0 0 Z " fill="#5CACEF" transform="translate(416,488)"/>
<path d="M0 0 C1.60725635 3.21451269 1.05748185 6.43612536 1 10 C0.01 10.495 0.01 10.495 -1 11 C-2.38550197 8.22899606 -2.1877467 6.0665294 -2 3 C-1.34 2.01 -0.68 1.02 0 0 Z " fill="#031430" transform="translate(387,331)"/>
<path d="M0 0 C2.475 0.99 2.475 0.99 5 2 C2.53721199 4.46278801 0.29323018 4.99771255 -3 6 C-3 5.01 -3 4.02 -3 3 C-2.01 3 -1.02 3 0 3 C0 2.01 0 1.02 0 0 Z " fill="#E9CD43" transform="translate(253,192)"/>
<path d="M0 0 C2.31 0 4.62 0 7 0 C5.515 2.475 5.515 2.475 4 5 C3.67 4.01 3.34 3.02 3 2 C2.01 2 1.02 2 0 2 C0 1.34 0 0.68 0 0 Z " fill="#57A6E2" transform="translate(468,456)"/>
<path d="M0 0 C0.33 0 0.66 0 1 0 C1.25 3.3125 1.25 3.3125 1 7 C-0.32 7.99 -1.64 8.98 -3 10 C-2.01 6.7 -1.02 3.4 0 0 Z " fill="#221602" transform="translate(197,252)"/>
<path d="M0 0 C1 2 1 2 0.375 4.5625 C-1 7 -1 7 -3.625 7.8125 C-4.40875 7.874375 -5.1925 7.93625 -6 8 C-4.02 5.36 -2.04 2.72 0 0 Z " fill="#3486D2" transform="translate(229,233)"/>
<path d="M0 0 C0.66 0.33 1.32 0.66 2 1 C0.68 3.31 -0.64 5.62 -2 8 C-2.99 7.67 -3.98 7.34 -5 7 C-3.35 4.69 -1.7 2.38 0 0 Z " fill="#1B1203" transform="translate(209,232)"/>
<path d="M0 0 C0.66 0 1.32 0 2 0 C2 1.32 2 2.64 2 4 C0 6 0 6 -3 8 C-2.25 2.25 -2.25 2.25 0 0 Z " fill="#F5C237" transform="translate(143,127)"/>
<path d="M0 0 C-2.39223697 2.39223697 -3.67759676 2.6758631 -7 3 C-7.99 2.34 -8.98 1.68 -10 1 C-6.78548731 -0.60725635 -3.56387464 -0.05748185 0 0 Z " fill="#071C2A" transform="translate(418,492)"/>
<path d="M0 0 C1.32 0.33 2.64 0.66 4 1 C3.67 1.99 3.34 2.98 3 4 C3.66 4 4.32 4 5 4 C5.33 5.65 5.66 7.3 6 9 C5.34 9 4.68 9 4 9 C2.68 6.03 1.36 3.06 0 0 Z " fill="#06182B" transform="translate(480,356)"/>
<path d="M0 0 C2.64 0.33 5.28 0.66 8 1 C8 2.65 8 4.3 8 6 C6.66402348 5.19185349 5.331275 4.37836819 4 3.5625 C3.2575 3.11003906 2.515 2.65757812 1.75 2.19140625 C1.1725 1.79824219 0.595 1.40507812 0 1 C0 0.67 0 0.34 0 0 Z " fill="#061933" transform="translate(448,324)"/>
</svg>
